# xmcd
# 
# Track frame offsets:
#     150
#     13575
#     27900
#     49875
#     66075
#     81675
#     99750
#     122925
#     140400
#     158850
#     174975
#     206100
#     221925
#     261375
#     286350
# 
# Disc length: 4035
# 
# Revision: 0
# Processed by: cddbd v1.5.2PL0 Copyright (c) Steve Scherf et al.
# Submitted via: BonkEnc v1.0.5
# 
DISCID=e50fc10f
DTITLE=Copeland Johnny - Texas Twister 
DYEAR=1986
DGENRE=Blues
TTITLE0=Everybody Wants A Piece Of Me
TTITLE1=Copeland Special
TTITLE2=It's My Own Tears
TTITLE3=Claim Jumper
TTITLE4=Natural Born Believer
TTITLE5=Cold Outside
TTITLE6=Honky Tonkin'
TTITLE7=Love Utopia
TTITLE8=Don't Stop By The Creek, Son
TTITLE9=Houston
TTITLE10=I De Go Now
TTITLE11=Excuses
TTITLE12=Ngote
TTITLE13=Kasavubu
TTITLE14=Abidjan
EXTD=YEAR: 1986 ID3G: 0
EXTT0=
EXTT1=
EXTT2=
EXTT3=
EXTT4=
EXTT5=
EXTT6=
EXTT7=
EXTT8=
EXTT9=
EXTT10=
EXTT11=
EXTT12=
EXTT13=
EXTT14=
PLAYORDER=
